<svg width="22" height="25" viewBox="0 0 22 25" fill="none" xmlns="http://www.w3.org/2000/svg">
<path d="M9.73387 0.401132C7.96774 1.64135 4.96774 3.07534 1.3629 3.80397C0.572581 3.96675 0 4.64111 0 5.424V14.3535C0 16.5472 0.83871 18.6633 2.37097 20.2833C3.84677 21.8491 6.16129 23.3606 9.70161 24.7558C10.5323 25.0814 11.4677 25.0814 12.2984 24.7558C15.8387 23.3528 18.1532 21.8491 19.629 20.2833C21.1613 18.6555 22 15.772 22 13.5784V5.424C22 4.64111 21.4274 3.96675 20.6371 3.80397C17.0323 3.07534 14.0323 1.64135 12.2661 0.401132C11.5081 -0.133711 10.5 -0.133711 9.75 0.401132H9.73387Z" fill="url(#paint0_linear_1267_22245)"/>
<foreignObject x="2" y="3.5" width="18" height="18"><div xmlns="http://www.w3.org/1999/xhtml" style="backdrop-filter:blur(1px);clip-path:url(#bgblur_0_1267_22245_clip_path);height:100%;width:100%"></div></foreignObject><path data-figma-bg-blur-radius="2" d="M11 19.5C14.866 19.5 18 16.366 18 12.5C18 8.63401 14.866 5.5 11 5.5C7.13401 5.5 4 8.63401 4 12.5C4 16.366 7.13401 19.5 11 19.5Z" fill="url(#paint1_linear_1267_22245)" fill-opacity="0.3"/>
<g filter="url(#filter1_d_1267_22245)">
<path d="M11 14.5C11.5523 14.5 12 14.0299 12 13.45V8.55C12 7.97011 11.5523 7.5 11 7.5C10.4477 7.5 10 7.97011 10 8.55V13.45C10 14.0299 10.4477 14.5 11 14.5Z" fill="white"/>
<path d="M11 17C11.5523 17 12 16.5523 12 16C12 15.4477 11.5523 15 11 15C10.4477 15 10 15.4477 10 16C10 16.5523 10.4477 17 11 17Z" fill="white"/>
</g>
<defs>
<clipPath id="bgblur_0_1267_22245_clip_path" transform="translate(-2 -3.5)"><path d="M11 19.5C14.866 19.5 18 16.366 18 12.5C18 8.63401 14.866 5.5 11 5.5C7.13401 5.5 4 8.63401 4 12.5C4 16.366 7.13401 19.5 11 19.5Z"/>
</clipPath><filter id="filter1_d_1267_22245" x="8" y="7.5" width="6" height="13.5" filterUnits="userSpaceOnUse" color-interpolation-filters="sRGB">
<feFlood flood-opacity="0" result="BackgroundImageFix"/>
<feColorMatrix in="SourceAlpha" type="matrix" values="0 0 0 0 0 0 0 0 0 0 0 0 0 0 0 0 0 0 127 0" result="hardAlpha"/>
<feOffset dy="2"/>
<feGaussianBlur stdDeviation="1"/>
<feComposite in2="hardAlpha" operator="out"/>
<feColorMatrix type="matrix" values="0 0 0 0 0 0 0 0 0 0 0 0 0 0 0 0 0 0 0.14 0"/>
<feBlend mode="normal" in2="BackgroundImageFix" result="effect1_dropShadow_1267_22245"/>
<feBlend mode="normal" in="SourceGraphic" in2="effect1_dropShadow_1267_22245" result="shape"/>
</filter>
<linearGradient id="paint0_linear_1267_22245" x1="-4.84069" y1="-5" x2="23.6877" y2="34.9948" gradientUnits="userSpaceOnUse">
<stop stop-color="#FFBED4"/>
<stop offset="1" stop-color="#ED2E6B"/>
</linearGradient>
<linearGradient id="paint1_linear_1267_22245" x1="11" y1="5.5" x2="11" y2="19.5" gradientUnits="userSpaceOnUse">
<stop stop-color="white"/>
<stop offset="1" stop-color="#F7FAFF"/>
</linearGradient>
</defs>
</svg>
