<svg xmlns="http://www.w3.org/2000/svg" fill="none" viewBox="0 0 32 33">
  <g filter="url(#a)">
    <path fill="url(#b)" fill-rule="evenodd" d="M3 6.419a3 3 0 0 1 3-3h19a3 3 0 0 1 3 3v21.42a3 3 0 0 1-3 3H6a3 3 0 0 1-3-3V6.418Z" clip-rule="evenodd"/>
    <path fill="#fff" fill-rule="evenodd" d="M5.822 7.242a1 1 0 0 1 1-1h17.355a1 1 0 0 1 1 1v15.049l-3.024 2.701-2.621 3.024H6.822a1 1 0 0 1-1-1V7.242Z" clip-rule="evenodd"/>
    <path fill="#EF5252" d="M15.5 21.967c.053-.035 3.038-1.894 4.413-3.895.321-.468.544-.938.648-1.22a2.642 2.642 0 0 0 .18-1.008c0-1.517-1.317-2.747-2.942-2.747-.93 0-1.76.48-2.3 1.11-.539-.63-1.368-1.11-2.299-1.11-1.625 0-2.942 1.23-2.942 2.747a2.642 2.642 0 0 0 .18 1.009c.104.281.327.75.648 1.219 1.376 2.001 4.36 3.86 4.413 3.895h.001Z"/>
    <path fill="#1A8001" fill-rule="evenodd" d="M9.855 3.613a1 1 0 0 1 1-1h9.29a1 1 0 0 1 1 1V5.05a2 2 0 0 1-2 2h-7.29a2 2 0 0 1-2-2V3.613Z" clip-rule="evenodd"/>
    <path fill="#1A8001" d="M13.08 2a1 1 0 0 1 1-1h2.839a1 1 0 0 1 1 1v2.472a2 2 0 0 1-2 2h-.839a2 2 0 0 1-2-2V2Z"/>
    <path fill="#EBEBEB" fill-rule="evenodd" d="M19.533 23.371a1 1 0 0 1 1-1h4.645l-5.645 5.645v-4.645Z" clip-rule="evenodd"/>
  </g>
  <defs>
    <linearGradient id="b" x1="-6.848" x2="25.107" y1="-6.136" y2="34.265" gradientUnits="userSpaceOnUse">
      <stop stop-color="#40D068"/>
      <stop offset="1" stop-color="#32A853"/>
    </linearGradient>
    <filter id="a" width="27" height="31.838" x="3" y="1" color-interpolation-filters="sRGB" filterUnits="userSpaceOnUse">
      <feFlood flood-opacity="0" result="BackgroundImageFix"/>
      <feColorMatrix in="SourceAlpha" result="hardAlpha" values="0 0 0 0 0 0 0 0 0 0 0 0 0 0 0 0 0 0 127 0"/>
      <feOffset dx="1" dy="1"/>
      <feGaussianBlur stdDeviation=".5"/>
      <feComposite in2="hardAlpha" operator="out"/>
      <feColorMatrix values="0 0 0 0 0 0 0 0 0 0 0 0 0 0 0 0 0 0 0.1 0"/>
      <feBlend in2="BackgroundImageFix" result="effect1_dropShadow_8900_57819"/>
      <feBlend in="SourceGraphic" in2="effect1_dropShadow_8900_57819" result="shape"/>
    </filter>
  </defs>
</svg>
