<svg xmlns="http://www.w3.org/2000/svg" fill="none" viewBox="0 0 32 32">
  <g filter="url(#a)">
    <rect width="26" height="24.074" x="3" y="4.889" fill="#A7DFFF" rx="3"/>
    <path fill="#707070" fill-rule="evenodd" d="M6.852 3.444a1.444 1.444 0 0 1 2.888 0v2.408H6.852V3.444Zm15.408 0a1.444 1.444 0 1 1 2.889 0v2.408h-2.89V3.444Z" clip-rule="evenodd"/>
    <path fill="#2D9CDB" d="M3 6.889a2 2 0 0 1 2-2h22a2 2 0 0 1 2 2v4.74H3V6.89Z"/>
    <path fill="#006DAC" d="M12.409 19.964h-1.596a.786.786 0 1 1 0-1.573h1.597a.787.787 0 1 1-.001 1.573Zm8.777 0h-1.595a.787.787 0 1 1 0-1.573h1.596a.787.787 0 1 1 0 1.573Z"/>
    <path fill="#006DAC" d="M17.992 23.37a.8.8 0 0 1-.757-.534l-1.239-3.594-1.237 3.595a.804.804 0 0 1-1.515 0l-1.994-5.793a.78.78 0 0 1 .23-.85.782.782 0 0 1 .27-.15.801.801 0 0 1 1.014.492l1.238 3.595 1.238-3.596a.803.803 0 0 1 1.514 0l1.238 3.595 1.237-3.595a.804.804 0 0 1 1.556.201.783.783 0 0 1-.04.307l-1.995 5.793a.799.799 0 0 1-.758.535Z"/>
  </g>
  <defs>
    <filter id="a" width="28" height="28.963" x="3" y="2" color-interpolation-filters="sRGB" filterUnits="userSpaceOnUse">
      <feFlood flood-opacity="0" result="BackgroundImageFix"/>
      <feColorMatrix in="SourceAlpha" result="hardAlpha" values="0 0 0 0 0 0 0 0 0 0 0 0 0 0 0 0 0 0 127 0"/>
      <feOffset dx="1" dy="1"/>
      <feGaussianBlur stdDeviation=".5"/>
      <feComposite in2="hardAlpha" operator="out"/>
      <feColorMatrix values="0 0 0 0 0 0 0 0 0 0 0 0 0 0 0 0 0 0 0.1 0"/>
      <feBlend in2="BackgroundImageFix" result="effect1_dropShadow_8900_57834"/>
      <feBlend in="SourceGraphic" in2="effect1_dropShadow_8900_57834" result="shape"/>
    </filter>
  </defs>
</svg>
