<svg xmlns="http://www.w3.org/2000/svg" fill="none" viewBox="0 0 32 32">
  <g filter="url(#a)">
    <path fill="url(#b)" d="M19 6a7 7 0 0 1 7 7v1.12c2.33.824 4 3.045 4 5.657v2a2 2 0 0 1-2 2H2a2 2 0 0 1-2-2v-2a6.002 6.002 0 0 1 4-5.657V13a7 7 0 0 1 7-7h8Z"/>
    <rect width="5.27" height="5.27" x="4.865" y="20.587" fill="#2593FF" stroke="url(#c)" stroke-width="2" rx="2.635"/>
    <path fill="#2593FF" stroke="url(#d)" stroke-width="2" d="M19.865 23.365a2.635 2.635 0 1 1 5.27 0 2.635 2.635 0 0 1-5.27 0Z"/>
    <path fill="url(#e)" d="M6.207 13.778a5.556 5.556 0 0 1 5.556-5.555h2.72v5.555H6.207Z"/>
    <path fill="url(#f)" d="M23.793 13.778a5.556 5.556 0 0 0-5.556-5.555h-2.72v5.555h8.276Z"/>
    <rect width="4.138" height="1.111" x="10.344" y="16" fill="#F5F292" rx=".556"/>
  </g>
  <defs>
    <linearGradient id="b" x1="15" x2="15.639" y1="7.111" y2="38.181" gradientUnits="userSpaceOnUse">
      <stop stop-color="#09B5FF"/>
      <stop offset="1" stop-color="#505EFF"/>
    </linearGradient>
    <linearGradient id="c" x1="3.987" x2="19.096" y1="19.269" y2="60.642" gradientUnits="userSpaceOnUse">
      <stop stop-color="#fff"/>
      <stop offset="1" stop-color="#1E9BFF"/>
    </linearGradient>
    <linearGradient id="d" x1="18.987" x2="34.096" y1="19.412" y2="60.785" gradientUnits="userSpaceOnUse">
      <stop stop-color="#fff"/>
      <stop offset="1" stop-color="#1E9BFF"/>
    </linearGradient>
    <linearGradient id="e" x1="10.345" x2="10.345" y1="8.223" y2="13.778" gradientUnits="userSpaceOnUse">
      <stop stop-color="#EAF6FF"/>
      <stop offset="1" stop-color="#C4E6FF"/>
    </linearGradient>
    <linearGradient id="f" x1="19.655" x2="19.655" y1="8.223" y2="13.778" gradientUnits="userSpaceOnUse">
      <stop stop-color="#EAF6FF"/>
      <stop offset="1" stop-color="#C4E6FF"/>
    </linearGradient>
    <filter id="a" width="32" height="23" x="0" y="6" color-interpolation-filters="sRGB" filterUnits="userSpaceOnUse">
      <feFlood flood-opacity="0" result="BackgroundImageFix"/>
      <feColorMatrix in="SourceAlpha" result="hardAlpha" values="0 0 0 0 0 0 0 0 0 0 0 0 0 0 0 0 0 0 127 0"/>
      <feOffset dx="1" dy="1"/>
      <feGaussianBlur stdDeviation=".5"/>
      <feComposite in2="hardAlpha" operator="out"/>
      <feColorMatrix values="0 0 0 0 0 0 0 0 0 0 0 0 0 0 0 0 0 0 0.1 0"/>
      <feBlend in2="BackgroundImageFix" result="effect1_dropShadow_8900_57816"/>
      <feBlend in="SourceGraphic" in2="effect1_dropShadow_8900_57816" result="shape"/>
    </filter>
  </defs>
</svg>
